<?xml version="1.0" encoding="UTF-8" standalone="no"?>
<svg
   height="799.99994"
   width="1200"
   viewBox="-44.99895 -50.68325 389.9909 304.09948"
   version="1.1"
   id="svg9"
   sodipodi:docname="Adidas.svg"
   xmlns:inkscape="http://www.inkscape.org/namespaces/inkscape"
   xmlns:sodipodi="http://sodipodi.sourceforge.net/DTD/sodipodi-0.dtd"
   xmlns="http://www.w3.org/2000/svg"
   xmlns:svg="http://www.w3.org/2000/svg">
  <defs
     id="defs9" />
  <sodipodi:namedview
     id="namedview9"
     pagecolor="#ffffff"
     bordercolor="#000000"
     borderopacity="0.25"
     inkscape:showpageshadow="2"
     inkscape:pageopacity="0.0"
     inkscape:pagecheckerboard="0"
     inkscape:deskcolor="#d1d1d1" />
  <g
     clip-path="url(#d)"
     transform="matrix(21.955,0,0,-21.955,-2044.076,10480)"
     id="g1">
    <path
       d="m 105.72,468.11 c -0.639,0 -1.018,0.327 -1.047,0.798 h 0.611 c 0,-0.157 0.087,-0.366 0.465,-0.379 0.262,0 0.407,0.157 0.407,0.275 -0.029,0.183 -0.262,0.196 -0.494,0.236 a 2.389,2.389 0 0 0 -0.611,0.156 0.626,0.626 0 0 0 -0.32,0.563 c 0,0.419 0.35,0.746 0.96,0.746 0.582,0 0.96,-0.301 0.988,-0.759 h -0.581 c 0,0.117 -0.029,0.314 -0.378,0.314 -0.233,0 -0.378,-0.039 -0.407,-0.209 0,-0.236 0.494,-0.223 0.872,-0.314 0.349,-0.092 0.582,-0.314 0.582,-0.629 0,-0.576 -0.465,-0.798 -1.047,-0.798"
       id="path1" />
  </g>
  <path
     d="m 32.56,117.8 44.042,-25.578 23.624,40.53 H 40.86"
     id="path2" />
  <path
     stroke-width="12.888"
     stroke="#000000"
     d="M 125.174,201.12 V 149.965"
     id="path3" />
  <g
     clip-path="url(#c)"
     transform="matrix(21.955,0,0,-21.955,-2044.076,10480)"
     id="g4">
    <path
       d="m 93.655,469.31 c 0,-0.366 0.32,-0.667 0.668,-0.667 0.379,0 0.669,0.301 0.669,0.667 0,0.353 -0.29,0.667 -0.669,0.667 a 0.692,0.692 0 0 1 -0.668,-0.667 m 0.639,-1.204 c -0.639,0 -1.191,0.537 -1.191,1.204 0,0.667 0.552,1.191 1.191,1.191 0.262,0 0.495,-0.066 0.698,-0.209 v 0.183 h 0.582 v -2.316 h -0.582 v 0.144 c -0.174,-0.131 -0.436,-0.197 -0.698,-0.197"
       id="path4" />
  </g>
  <path
     d="M 196.614,132.74 135.337,25.863 179.38,0 255.981,132.74"
     id="path5" />
  <g
     clip-path="url(#b)"
     transform="matrix(21.955,0,0,-21.955,-2044.076,10480)"
     id="g6">
    <path
       d="m 96.33,469.31 c 0,-0.366 0.291,-0.667 0.669,-0.667 0.348,0 0.669,0.301 0.669,0.667 a 0.693,0.693 0 0 1 -0.669,0.667 0.672,0.672 0 0 1 -0.669,-0.667 m 0.64,-1.204 a 1.19,1.19 0 0 0 -1.192,1.204 c 0,0.667 0.523,1.191 1.192,1.191 0.261,0 0.494,-0.066 0.698,-0.209 v 0.981 h 0.581 v -3.114 h -0.581 v 0.144 a 1.265,1.265 0 0 0 -0.698,-0.197"
       id="path6" />
  </g>
  <path
     d="m 84.27,72.119 44.68,-25.27 49.156,85.888 h -46.61 v 12.646 H 118.74 v -12.646"
     id="path7" />
  <g
     clip-path="url(#a)"
     transform="matrix(21.955,0,0,-21.955,-2044.076,10480)"
     id="g9">
    <path
       d="m 106.39,470.7 a 0.3,0.3 0 0 0 -0.291,0.288 0.3,0.3 0 0 0 0.291,0.288 0.283,0.283 0 0 0 0.291,-0.288 0.283,0.283 0 0 0 -0.291,-0.288 m 0,0.536 c -0.146,0 -0.233,-0.117 -0.233,-0.248 0,-0.131 0.087,-0.249 0.233,-0.249 0.145,0 0.232,0.118 0.232,0.249 0,0.131 -0.087,0.248 -0.232,0.248"
       id="path8" />
    <path
       d="m 106.45,470.83 -0.058,0.131 h -0.058 v -0.131 h -0.044 v 0.314 h 0.131 c 0.029,0 0.087,-0.04 0.087,-0.092 a 0.093,0.093 0 0 0 -0.058,-0.091 l 0.058,-0.131 m -0.116,0.274 h -0.058 V 471 h 0.058 c 0.058,0 0.058,0.013 0.058,0.052 0,0.027 0,0.052 -0.058,0.052 m -3.842,-1.794 c 0,-0.366 0.291,-0.667 0.669,-0.667 0.349,0 0.668,0.301 0.668,0.667 a 0.691,0.691 0 0 1 -0.668,0.667 0.672,0.672 0 0 1 -0.669,-0.667 m 0.639,-1.204 a 1.19,1.19 0 0 0 -1.191,1.204 c 0,0.667 0.523,1.191 1.191,1.191 0.262,0 0.495,-0.066 0.698,-0.209 v 0.183 h 0.553 v -2.316 h -0.553 v 0.144 a 1.26,1.26 0 0 0 -0.698,-0.197 m -3.312,1.204 c 0,-0.366 0.32,-0.667 0.669,-0.667 0.378,0 0.669,0.301 0.669,0.667 a 0.672,0.672 0 0 1 -0.669,0.667 0.692,0.692 0 0 1 -0.669,-0.667 m 1.338,1.963 h 0.581 v -3.114 h -0.581 v 0.144 a 1.107,1.107 0 0 0 -0.669,-0.197 c -0.669,0 -1.221,0.537 -1.221,1.204 0,0.667 0.552,1.191 1.221,1.191 0.261,0 0.494,-0.066 0.669,-0.209 z"
       id="path9" />
  </g>
</svg>
